<?xml version="1.0" encoding="UTF-8"?>
<svg width="83px" height="82px" viewBox="0 0 83 82" version="1.1" xmlns="http://www.w3.org/2000/svg" xmlns:xlink="http://www.w3.org/1999/xlink">
    <!-- Generator: Sketch 49.1 (51147) - http://www.bohemiancoding.com/sketch -->
    <title>cooking-logo</title>
    <desc>Created with Sketch.</desc>
    <defs></defs>
    <g id="Page-1" stroke="none" stroke-width="1" fill="none" fill-rule="evenodd">
        <g id="cooking-logo" transform="translate(1.000000, 1.000000)" fill="#000000" fill-rule="nonzero" stroke="#000000" stroke-width="0.5">
            <path d="M1.3559322,80 L80,80 C80.7484746,80 81.3559322,79.3925424 81.3559322,78.6440678 L81.3559322,73.220339 C81.3559322,72.4718644 80.7484746,71.8644068 80,71.8644068 L71.7288136,71.8644068 L69.720678,52.7891525 L71.9430508,56.1220339 L72.4935593,58.8786441 C72.759322,60.2074576 73.5945763,61.3383051 74.7864407,61.9850847 C75.4616949,62.3511864 76.2033898,62.5355932 76.9491525,62.5355932 C77.52,62.5355932 78.0935593,62.4271186 78.64,62.2088136 C79.8169492,61.7383051 80.7498305,60.7891525 81.2013559,59.6040678 C81.6515254,58.4189831 81.5850847,57.0901695 81.0183051,55.9552542 L79.8576271,53.6325424 C79.8535593,53.6230508 79.8454237,53.6176271 79.84,53.6094915 C79.8372881,53.6027119 79.8372881,53.5959322 79.8345763,53.5891525 L71.6989831,38.6738983 C71.5484746,38.3972881 71.3044068,38.1816949 71.0128814,38.0637288 L67.3383051,36.5938983 C70.0962712,34.3538983 71.8644068,30.939661 71.8644068,27.1186441 C71.8644068,25.0752542 71.3261017,23.0630508 70.3362712,21.2623729 L69.6366102,14.2630508 C71.819661,13.3383051 73.220339,11.5227119 73.220339,9.49152542 C73.220339,6.57220339 70.3227119,4.18440678 66.7077966,4.07186441 C65.2664407,1.57016949 62.5938983,0 59.6610169,0 C56.7281356,0 54.0555932,1.57016949 52.6142373,4.07186441 C48.999322,4.18440678 46.1016949,6.57220339 46.1016949,9.49152542 C46.1016949,11.5227119 47.5023729,13.3383051 49.6854237,14.2630508 L48.9857627,21.2623729 C47.9959322,23.0630508 47.4576271,25.0752542 47.4576271,27.1186441 C47.4576271,30.939661 49.2257627,34.3538983 51.9850847,36.5925424 L48.3105085,38.0623729 C48.0935593,38.1491525 47.9023729,38.2915254 47.7559322,38.4745763 L43.179661,44.1952542 L37.6501695,39.7722034 L36.1735593,37.3111864 C35.9227119,36.8922034 35.6027119,36.5369492 35.2569492,36.2128814 L35.2569492,32.5423729 C35.2569492,30.7769492 34.119322,29.2854237 32.5450847,28.7240678 L32.5450847,23.0508475 L33.9010169,23.0508475 C36.1437288,23.0508475 37.9688136,21.2257627 37.9688136,18.9830508 L37.9688136,10.8474576 C37.9688136,8.60474576 36.1437288,6.77966102 33.9010169,6.77966102 L28.4772881,6.77966102 C26.2345763,6.77966102 24.4094915,8.60474576 24.4094915,10.8474576 L24.4094915,18.9830508 C24.4094915,21.2257627 26.2345763,23.0508475 28.4772881,23.0508475 L29.8332203,23.0508475 L29.8332203,28.7240678 C28.2589831,29.2854237 27.1213559,30.7769492 27.1213559,32.5423729 L27.1213559,37.9661017 C27.1213559,37.9674576 27.1213559,37.9701695 27.1213559,37.9715254 C26.7823729,38.7783051 26.6305085,39.6583051 26.740339,40.5586441 C26.9342373,42.1274576 27.8223729,43.4942373 29.1769492,44.3077966 L31.7423729,45.8467797 L40.7566102,53.7342373 C42.2711864,55.0576271 44.4908475,55.0861017 46.039322,53.7966102 L49.8291525,50.6372881 L47.5932203,71.8644068 L23.8888136,71.8644068 L25.479322,68.6833898 C28.0176271,67.7030508 29.8305085,65.2528814 29.8305085,62.3728814 L29.8305085,59.4115254 C31.4047458,58.8501695 32.5423729,57.3586441 32.5423729,55.5932203 C32.5423729,53.3505085 30.7172881,51.5254237 28.4745763,51.5254237 L4.06779661,51.5254237 C1.82508475,51.5254237 3.55271368e-15,53.3505085 3.55271368e-15,55.5932203 C3.55271368e-15,57.3586441 1.13762712,58.8501695 2.71186441,59.4115254 L2.71186441,62.3728814 C2.71186441,65.2528814 4.52474576,67.7030508 7.06305085,68.6833898 L8.65355932,71.8644068 L1.3559322,71.8644068 C0.607457627,71.8644068 3.55271368e-15,72.4718644 3.55271368e-15,73.220339 L3.55271368e-15,78.6440678 C3.55271368e-15,79.3925424 0.607457627,80 1.3559322,80 Z M35.2542373,10.8474576 L35.2542373,18.9830508 C35.2542373,19.7301695 34.6454237,20.3389831 33.8983051,20.3389831 L32.5423729,20.3389831 L32.5423729,9.49152542 L33.8983051,9.49152542 C34.6454237,9.49152542 35.2542373,10.100339 35.2542373,10.8474576 Z M28.4745763,20.3389831 C27.7274576,20.3389831 27.1186441,19.7301695 27.1186441,18.9830508 L27.1186441,10.8474576 C27.1186441,10.100339 27.7274576,9.49152542 28.4745763,9.49152542 L29.8305085,9.49152542 L29.8305085,20.3389831 L28.4745763,20.3389831 Z M55.2840678,38.5016949 C55.3383051,38.5220339 55.3938983,38.5369492 55.4481356,38.5559322 C55.720678,38.6562712 55.9945763,38.7525424 56.2752542,38.8338983 C56.3823729,38.8650847 56.4908475,38.8894915 56.5979661,38.9166102 C56.8569492,38.9844068 57.1159322,39.0494915 57.380339,39.099661 C57.5132203,39.1254237 57.6474576,39.140339 57.780339,39.160678 C58.0257627,39.1986441 58.2698305,39.239322 58.519322,39.2637288 C58.6942373,39.28 58.8705085,39.2813559 59.0454237,39.2908475 C59.2515254,39.3016949 59.4535593,39.3220339 59.6610169,39.3220339 C59.8684746,39.3220339 60.0705085,39.3016949 60.2766102,39.2908475 C60.4528814,39.2813559 60.6277966,39.28 60.8027119,39.2637288 C61.0522034,39.240678 61.2962712,39.2 61.5416949,39.160678 C61.6745763,39.140339 61.8088136,39.1254237 61.9416949,39.099661 C62.2061017,39.0494915 62.4650847,38.9830508 62.7240678,38.9166102 C62.8311864,38.8881356 62.939661,38.8650847 63.0467797,38.8338983 C63.3274576,38.7525424 63.6027119,38.6576271 63.8738983,38.5559322 C63.9281356,38.5355932 63.9837288,38.5220339 64.0379661,38.5016949 L66.0379661,46.1016949 L53.2854237,46.1016949 L55.2840678,38.5016949 Z M78.6671186,58.6386441 C78.4827119,59.1227119 78.1152542,59.4969492 77.6338983,59.6894915 C77.1281356,59.8915254 76.56,59.8589831 76.08,59.5986441 C75.6,59.3383051 75.2610169,58.8813559 75.1538983,58.3457627 L74.8040678,56.5952542 L77.9186441,55.8169492 L78.5925424,57.1661017 C78.8244068,57.6298305 78.8515254,58.1532203 78.6671186,58.6386441 Z M76.6142373,53.3464407 L73.8183051,54.0447458 L69.0508475,46.8935593 L67.0820339,39.4115254 L69.5525424,40.4 L76.6142373,53.3464407 Z M48.8135593,9.49152542 C48.8135593,8.02169492 50.6766102,6.77966102 52.8813559,6.77966102 C52.96,6.77966102 53.0345763,6.78915254 53.1105085,6.79728814 L53.3288136,6.81762712 C53.899661,6.85152542 54.4474576,6.53288136 54.6779661,6 C55.5349153,4.00271186 57.4915254,2.71186441 59.6610169,2.71186441 C61.8305085,2.71186441 63.7871186,4.00271186 64.6454237,6 C64.8745763,6.53288136 65.4305085,6.86237288 65.9945763,6.81762712 L66.2128814,6.79728814 C66.2874576,6.78915254 66.3620339,6.77966102 66.440678,6.77966102 C68.6454237,6.77966102 70.5084746,8.02169492 70.5084746,9.49152542 C70.5084746,10.5749153 69.4128814,11.6108475 67.8440678,12.0122034 C67.1945763,12.1776271 66.7633898,12.7932203 66.8298305,13.460339 L67.6542373,21.6949153 L51.6677966,21.6949153 L52.4908475,13.4616949 C52.5572881,12.7945763 52.1261017,12.1789831 51.4766102,12.0135593 C49.9091525,11.6108475 48.8135593,10.5749153 48.8135593,9.49152542 Z M50.1694915,27.1186441 C50.1694915,26.199322 50.3064407,25.2854237 50.5694915,24.4067797 L68.7511864,24.4067797 C69.0155932,25.2854237 69.1525424,26.199322 69.1525424,27.1186441 C69.1525424,30.8827119 66.9437288,34.1328814 63.76,35.6664407 C63.4522034,35.8142373 63.1376271,35.9457627 62.8189831,36.0583051 C62.8040678,36.0637288 62.7891525,36.0691525 62.7742373,36.0745763 C60.7538983,36.7810169 58.5654237,36.7810169 56.5450847,36.0745763 C56.5301695,36.0691525 56.5152542,36.0637288 56.500339,36.0583051 C56.1816949,35.9457627 55.8684746,35.8142373 55.559322,35.6664407 C52.3783051,34.1328814 50.1694915,30.8827119 50.1694915,27.1186441 Z M29.8305085,32.5423729 C29.8305085,31.7952542 30.439322,31.1864407 31.1864407,31.1864407 C31.9335593,31.1864407 32.5423729,31.7952542 32.5423729,32.5423729 L32.5423729,34.8989831 C32.5342373,34.8976271 32.5247458,34.8976271 32.5166102,34.8962712 C32.4840678,34.8922034 32.4555932,34.8772881 32.4230508,34.8732203 C32.3484746,34.8637288 32.2752542,34.8772881 32.2020339,34.8705085 C31.9661017,34.8515254 31.7328814,34.8488136 31.4969492,34.8623729 C31.3789831,34.8691525 31.2623729,34.8691525 31.1471186,34.8840678 C30.8677966,34.919322 30.5952542,34.9844068 30.3254237,35.0657627 C30.2101695,35.1010169 30.0989831,35.1376271 29.9864407,35.179661 C29.9349153,35.1986441 29.8820339,35.2108475 29.8318644,35.2311864 L29.8318644,32.5423729 L29.8305085,32.5423729 Z M29.4305085,40.2264407 C29.3708475,39.7477966 29.4698305,39.28 29.6813559,38.8637288 C29.6867797,38.8528814 29.6962712,38.8461017 29.7016949,38.8352542 C29.76,38.7240678 29.8183051,38.6291525 29.8779661,38.5410169 C29.9511864,38.439322 30.0230508,38.3362712 30.1125424,38.2467797 C30.3023729,38.0555932 30.5233898,37.9105085 30.7552542,37.7979661 C30.7742373,37.7884746 30.7932203,37.7762712 30.8122034,37.7667797 C31.0440678,37.6623729 31.2908475,37.5972881 31.5430508,37.5715254 C31.5620339,37.5701695 31.579661,37.5674576 31.5986441,37.5661017 C31.8440678,37.5457627 32.0922034,37.5674576 32.3362712,37.6230508 C32.3620339,37.6284746 32.3877966,37.6338983 32.4122034,37.640678 C32.6657627,37.7084746 32.9125424,37.8128814 33.1389831,37.9674576 C33.1457627,37.9715254 33.1538983,37.9742373 33.160678,37.9783051 C33.4332203,38.1681356 33.6705085,38.4108475 33.8481356,38.7064407 L34.9044068,40.4677966 L32.3335593,43.0386441 L30.5722034,41.9823729 C29.9362712,41.6013559 29.52,40.9613559 29.4305085,40.2264407 Z M44.3010169,51.7125424 C43.7857627,52.1410169 43.0440678,52.1342373 42.539661,51.6922034 L34.5247458,44.679322 L36.7091525,42.4949153 L42.5410169,47.160678 C43.1240678,47.6284746 43.9783051,47.5349153 44.4461017,46.9491525 L49.6461017,40.4488136 L52.2372881,39.4128814 L50.3213559,46.6955932 L44.3010169,51.7125424 Z M52.7457627,48.8135593 L66.5762712,48.8135593 L69.0033898,71.8644068 L50.32,71.8644068 L52.7457627,48.8135593 Z M22.2128814,69.1525424 L20.8569492,71.8644068 L17.6271186,71.8644068 L17.6271186,69.1525424 L22.2128814,69.1525424 Z M4.06779661,54.2372881 L28.4745763,54.2372881 C29.2216949,54.2372881 29.8305085,54.8461017 29.8305085,55.5932203 C29.8305085,56.340339 29.2216949,56.9491525 28.4745763,56.9491525 L4.06779661,56.9491525 C3.32067797,56.9491525 2.71186441,56.340339 2.71186441,55.5932203 C2.71186441,54.8461017 3.32067797,54.2372881 4.06779661,54.2372881 Z M5.42372881,62.3728814 L5.42372881,59.6610169 L27.1186441,59.6610169 L27.1186441,62.3728814 C27.1186441,64.6155932 25.2935593,66.440678 23.0508475,66.440678 L9.49152542,66.440678 C7.24881356,66.440678 5.42372881,64.6155932 5.42372881,62.3728814 Z M10.3294915,69.1525424 L14.9152542,69.1525424 L14.9152542,71.8644068 L11.6854237,71.8644068 L10.3294915,69.1525424 Z M2.71186441,74.5762712 L10.8474576,74.5762712 L21.6949153,74.5762712 L48.8135593,74.5762712 L70.5084746,74.5762712 L78.6440678,74.5762712 L78.6440678,77.2881356 L2.71186441,77.2881356 L2.71186441,74.5762712 Z" id="Shape"></path>
            <path d="M63.7288136,54.2372881 L55.5932203,54.2372881 C54.8447458,54.2372881 54.2372881,54.8447458 54.2372881,55.5932203 L54.2372881,59.6610169 C54.2372881,62.6522034 56.6698305,65.0847458 59.6610169,65.0847458 C62.6522034,65.0847458 65.0847458,62.6522034 65.0847458,59.6610169 L65.0847458,55.5932203 C65.0847458,54.8447458 64.4772881,54.2372881 63.7288136,54.2372881 Z M62.3728814,59.6610169 C62.3728814,61.1566102 61.1566102,62.3728814 59.6610169,62.3728814 C58.1654237,62.3728814 56.9491525,61.1566102 56.9491525,59.6610169 L56.9491525,56.9491525 L62.3728814,56.9491525 L62.3728814,59.6610169 Z" id="Shape"></path>
            <rect id="Rectangle-path" x="14.9152542" y="40.6779661" width="2.71186441" height="6.77966102"></rect>
            <rect id="Rectangle-path" x="21.6949153" y="43.3898305" width="2.71186441" height="5.42372881"></rect>
            <rect id="Rectangle-path" x="8.13559322" y="43.3898305" width="2.71186441" height="5.42372881"></rect>
            <rect id="Rectangle-path" x="14.9152542" y="35.2542373" width="2.71186441" height="2.71186441"></rect>
            <rect id="Rectangle-path" x="8.13559322" y="37.9661017" width="2.71186441" height="2.71186441"></rect>
            <rect id="Rectangle-path" x="21.6949153" y="37.9661017" width="2.71186441" height="2.71186441"></rect>
        </g>
    </g>
</svg>